#tb 0: 16/125
0,          0,          0,        1,   921600, 0xb69faa34
0,          1,          1,        1,   921600, 0x38680829
0,          2,          2,        1,   921600, 0xa7263c5a
0,          3,          3,        1,   921600, 0xa784626a
0,          4,          4,        1,   921600, 0xb4c47212
0,          5,          5,        1,   921600, 0xd17285ea
0,          6,          6,        1,   921600, 0xe9b33902
0,          7,          7,        1,   921600, 0x215ea693
0,          8,          8,        1,   921600, 0xe2ab6c7a
0,          9,          9,        1,   921600, 0xf2867624
0,         10,         10,        1,   921600, 0x607d78c1
0,         11,         11,        1,   921600, 0x6e743bb7
0,         12,         12,        1,   921600, 0x1fbf8f5a
0,         13,         13,        1,   921600, 0xac6c912e
0,         14,         14,        1,   921600, 0x556933bc
0,         15,         15,        1,   921600, 0xda4c242b
0,         16,         16,        1,   921600, 0xa6b32f83
0,         17,         17,        1,   921600, 0x1ecc2996
0,         18,         18,        1,   921600, 0xf1c3fc0f
0,         19,         19,        1,   921600, 0x3f1db909
0,         20,         20,        1,   921600, 0x7582fb93
0,         21,         21,        1,   921600, 0x102ba261
0,         22,         22,        1,   921600, 0xfbcf9de0
0,         23,         23,        1,   921600, 0xe9ecb4d9
0,         24,         24,        1,   921600, 0x7ee36a42
